<?xml version="1.0" standalone="no"?>
<!DOCTYPE svg PUBLIC "-//W3C//DTD SVG 20010904//EN"
 "http://www.w3.org/TR/2001/REC-SVG-20010904/DTD/svg10.dtd">
<svg version="1.0" xmlns="http://www.w3.org/2000/svg"
 width="348.000000pt" height="352.000000pt" viewBox="0 0 348.000000 352.000000"
 preserveAspectRatio="xMidYMid meet">

<g transform="translate(0.000000,352.000000) scale(0.100000,-0.100000)"
fill="#000000" stroke="none">
<path d="M1522 3399 c-41 -6 -125 -23 -187 -38 -295 -75 -542 -216 -761 -435
-219 -219 -361 -467 -434 -760 -15 -61 -31 -132 -34 -158 l-7 -48 398 0 399 0
13 49 c7 28 28 82 47 121 196 410 673 603 1090 441 242 -94 441 -302 516 -537
l23 -74 398 0 c248 0 397 4 397 10 0 5 -9 55 -20 112 -111 575 -534 1057
-1091 1242 -179 60 -282 77 -489 81 -102 2 -218 -1 -258 -6z"/>
<path d="M1613 2286 c-189 -46 -354 -210 -398 -397 -44 -188 8 -373 145 -509
136 -137 321 -189 509 -145 235 56 411 281 411 525 0 346 -332 607 -667 526z"/>
<path d="M106 1513 c12 -89 62 -270 99 -364 144 -365 439 -687 790 -864 129
-64 309 -125 450 -151 140 -27 449 -27 590 0 339 63 623 213 871 460 196 197
320 395 403 647 26 79 71 275 71 309 0 6 -149 10 -399 10 l-399 0 -6 -32 c-10
-50 -68 -177 -111 -242 -120 -180 -302 -311 -515 -368 -117 -31 -308 -30 -424
1 -283 76 -523 300 -607 566 l-24 75 -398 0 -398 0 7 -47z"/>
</g>
</svg>
